<svg width="87" height="98" viewBox="0 0 87 98" fill="none" xmlns="http://www.w3.org/2000/svg">
<path d="M85.86 14.8604C85.86 14.8604 83.634 -1.06403 64.6513 0.056476C61.3881 0.269528 58.1723 0.948785 55.1017 2.07356C53.4472 2.66643 51.8144 3.31821 50.2064 4.02768C48.0944 4.96343 45.81 5.44684 43.5 5.44684C41.19 5.44684 38.9056 4.96343 36.7937 4.02768C35.1858 3.31803 33.5529 2.66624 31.8984 2.07356C28.8278 0.948785 25.6119 0.269528 22.3488 0.056476C3.36601 -1.06278 1.14001 14.8604 1.14001 14.8604C-2.40709 32.7502 3.18336 44.6267 6.20086 49.4465C9.27381 54.2987 11.1437 59.8146 11.6549 65.5352C11.8039 67.2153 11.8621 68.9022 11.8293 70.5885C12.3839 84.7832 17.1253 92.4591 21.3746 96.5196C21.972 97.0823 22.7165 97.4641 23.522 97.621C24.3275 97.7778 25.161 97.7031 25.9258 97.4055C26.6906 97.108 27.3554 96.5998 27.8431 95.9398C28.3308 95.2799 28.6215 94.4952 28.6815 93.6768C30.297 72.3391 35.0656 62.5123 38.7611 58.0265C39.3328 57.3314 40.0505 56.7707 40.8632 56.384C41.6758 55.9974 42.5637 55.7943 43.4636 55.7893C44.3636 55.7842 45.2536 55.9773 46.0706 56.3548C46.8876 56.7323 47.6115 57.2849 48.191 57.9735C51.8924 62.4355 56.6913 72.2532 58.3139 93.6697C58.3739 94.4889 58.6648 95.2744 59.1531 95.935C59.6414 96.5955 60.3069 97.1041 61.0726 97.4017C61.8382 97.6993 62.6725 97.7737 63.4787 97.6163C64.2849 97.4589 65.03 97.0762 65.6275 96.5125C69.8764 92.4504 74.6124 84.7748 75.1666 70.5877C75.1337 68.9029 75.1918 67.2175 75.3405 65.5389C75.8524 59.8163 77.7239 54.2988 80.7992 49.4456C83.8163 44.6267 89.4071 32.751 85.86 14.8604Z" fill="#F2EBE7"/>
<path d="M55.0996 2.0723C53.4451 2.66517 51.8123 3.31695 50.2043 4.02642C48.6574 4.7116 47.0144 5.15506 45.3328 5.34125C44.9811 5.3799 44.6289 5.4077 44.2761 5.42466C44.2415 5.42466 44.2073 5.42466 44.1731 5.42758C41.6378 5.53339 39.1123 5.0541 36.792 4.02683C35.1841 3.31719 33.5513 2.6654 31.8967 2.07272C29.3318 1.14046 26.6666 0.511503 23.9556 0.198669C26.4222 3.99723 31.3784 9.46925 39.9371 10.7303C40.1056 10.7566 40.2643 10.8264 40.3976 10.9328C40.531 11.0391 40.6343 11.1783 40.6974 11.3368C40.7605 11.4952 40.7813 11.6673 40.7577 11.8362C40.734 12.0051 40.6668 12.1649 40.5626 12.2999C39.6764 13.4345 38.6624 14.4631 37.5405 15.3654C37.3003 15.5584 37.1286 15.8237 37.0507 16.1218C36.9728 16.42 36.9929 16.7353 37.108 17.0212C37.2231 17.3071 37.4271 17.5484 37.6899 17.7094C37.9526 17.8704 38.2602 17.9426 38.5672 17.9154C38.8858 17.8876 39.1973 17.8528 39.5018 17.8111C41.9341 17.4544 44.2548 16.5543 46.2916 15.1777C48.3284 13.8011 50.0289 11.9834 51.2669 9.85957C55.5621 2.69865 61.8352 0.393412 62.0083 0.328776C59.6528 0.676807 57.3382 1.26092 55.0996 2.0723Z" fill="#C9B4AF"/>
</svg>
